<?xml version="1.0" encoding="UTF-8" standalone="yes"?>
<svg height="22" version="1.1" viewBox="0 0 500 800" width="22" xmlns="http://www.w3.org/2000/svg" xmlns:svg="http://www.w3.org/2000/svg">
	<path d="M 35.437500,24.812500 L 35.437500,627.15625 L 70.875000,627.15625 L 70.875000,591.71875 L 106.31250,591.71875 L 106.31250,556.31250 L 70.875000,556.31250 L 70.875000,95.656250 L 106.31250,95.656250 L 106.31250,60.250000 L 70.875000,60.250000 L 70.875000,24.812500 L 35.437500,24.812500 z M 106.31250,95.656250 L 106.31250,131.09375 L 141.71875,131.09375 L 141.71875,95.656250 L 106.31250,95.656250 z M 141.71875,131.09375 L 141.71875,166.53125 L 177.15625,166.53125 L 177.15625,131.09375 L 141.71875,131.09375 z M 177.15625,166.53125 L 177.15625,201.96875 L 212.59375,201.96875 L 212.59375,166.53125 L 177.15625,166.53125 z M 212.59375,201.96875 L 212.59375,237.40625 L 248.03125,237.40625 L 248.03125,201.96875 L 212.59375,201.96875 z M 248.03125,237.40625 L 248.03125,272.84375 L 283.46875,272.84375 L 283.46875,237.40625 L 248.03125,237.40625 z M 283.46875,272.84375 L 283.46875,308.28125 L 318.90625,308.28125 L 318.90625,272.84375 L 283.46875,272.84375 z M 318.90625,308.28125 L 318.90625,343.68750 L 354.34375,343.68750 L 354.34375,308.28125 L 318.90625,308.28125 z M 354.34375,343.68750 L 354.34375,379.12500 L 389.75000,379.12500 L 389.75000,343.68750 L 354.34375,343.68750 z M 389.75000,379.12500 L 389.75000,414.56250 L 283.46875,414.56250 L 283.46875,450.00000 L 283.46875,520.87500 L 318.90625,520.87500 L 318.90625,450.00000 L 460.62500,450.00000 L 460.62500,414.56250 L 425.18750,414.56250 L 425.18750,379.12500 L 389.75000,379.12500 z M 318.90625,520.87500 L 318.90625,591.71875 L 354.34375,591.71875 L 354.34375,520.87500 L 318.90625,520.87500 z M 354.34375,591.71875 L 354.34375,662.59375 L 389.75000,662.59375 L 389.75000,591.71875 L 354.34375,591.71875 z M 389.75000,662.59375 L 389.75000,733.46875 L 425.18750,733.46875 L 425.18750,662.59375 L 389.75000,662.59375 z M 389.75000,733.46875 L 318.90625,733.46875 L 318.90625,768.90625 L 389.75000,768.90625 L 389.75000,733.46875 z M 318.90625,733.46875 L 318.90625,662.59375 L 283.46875,662.59375 L 283.46875,733.46875 L 318.90625,733.46875 z M 283.46875,662.59375 L 283.46875,591.71875 L 248.03125,591.71875 L 248.03125,662.59375 L 283.46875,662.59375 z M 248.03125,591.71875 L 248.03125,520.87500 L 212.59375,520.87500 L 212.59375,591.71875 L 248.03125,591.71875 z M 212.59375,520.87500 L 212.59375,450.00000 L 177.15625,450.00000 L 177.15625,485.43750 L 141.71875,485.43750 L 141.71875,520.87500 L 177.15625,520.87500 L 212.59375,520.87500 z M 141.71875,520.87500 L 106.31250,520.87500 L 106.31250,556.31250 L 141.71875,556.31250 L 141.71875,520.87500 z" fill="#000" fill-rule="evenodd" stroke="none" stroke-linecap="butt" stroke-linejoin="miter" stroke-width="1" />
	<path d="M 70.875000,95.656250 L 70.875000,556.31250 L 106.31250,556.31250 L 106.31250,520.87500 L 141.71875,520.87500 L 141.71875,485.43750 L 177.15625,485.43750 L 177.15625,450.00000 L 212.59375,450.00000 L 212.59375,520.87500 L 248.03125,520.87500 L 248.03125,591.71875 L 283.46875,591.71875 L 283.46875,662.59375 L 318.90625,662.59375 L 318.90625,733.46875 L 354.34375,733.46875 L 389.75000,733.46875 L 389.75000,662.59375 L 354.34375,662.59375 L 354.34375,591.71875 L 318.90625,591.71875 L 318.90625,520.87500 L 283.46875,520.87500 L 283.46875,414.56250 L 318.90625,414.56250 L 354.34375,414.56250 L 389.75000,414.56250 L 389.75000,379.12500 L 354.34375,379.12500 L 354.34375,343.68750 L 318.90625,343.68750 L 318.90625,308.28125 L 283.46875,308.28125 L 283.46875,272.84375 L 248.03125,272.84375 L 248.03125,237.40625 L 212.59375,237.40625 L 212.59375,201.96875 L 177.15625,201.96875 L 177.15625,166.53125 L 141.71875,166.53125 L 141.71875,131.09375 L 106.31250,131.09375 L 106.31250,95.656250 L 70.875000,95.656250 z" fill="#ffff" stroke="none" />
</svg>
