<svg viewBox="0 0 300 300.621" xmlns="http://www.w3.org/2000/svg"><path d="M233.875 243.87c-10.375 15.5-21.375 30.626-38.125 30.876-16.75.375-22.125-9.875-41.125-9.875-19.125 0-25 9.626-40.875 10.25-16.375.626-28.75-16.5-39.25-31.624-21.375-30.875-37.75-87.75-15.75-126 10.875-19 30.375-31 51.5-31.375 16-.25 31.25 10.876 41.125 10.876 9.75 0 28.25-13.375 47.625-11.375 8.125.376 30.875 3.25 45.5 24.75-1.125.75-27.125 16-26.875 47.626.375 37.75 33.125 50.375 33.5 50.5-.375.875-5.25 18-17.25 35.375zm-71.375-200c9.125-10.374 24.25-18.25 36.75-18.75 1.625 14.626-4.25 29.376-13 39.876-8.625 10.625-22.875 18.875-36.875 17.75C147.5 68.37 154.5 53.37 162.5 43.87z"/></svg>